<?xml version="1.0" encoding="UTF-8" standalone="no"?>
<svg width="131px" height="132px" viewBox="0 0 131 132" version="1.1" xmlns="http://www.w3.org/2000/svg" xmlns:xlink="http://www.w3.org/1999/xlink">
    <!-- Generator: Sketch 45.1 (43504) - http://www.bohemiancoding.com/sketch -->
    <title>Artboard 4</title>
    <desc>Created with Sketch.</desc>
    <defs></defs>
    <g id="Page-1" stroke="none" stroke-width="1" fill="none" fill-rule="evenodd">
        <g id="Artboard-4" transform="translate(-262.000000, -250.000000)">
            <g id="Bonfire" transform="translate(262.000000, 281.000000)">
                <g id="Group-5">
                    <polygon id="Path-66" fill="#F6D64F" transform="translate(25.563359, 42.028238) rotate(-6.000000) translate(-25.563359, -42.028238) " points="45.0633593 82.0282378 37.0633593 77.0282378 41.0633593 70.0282378 33.0633593 64.0282378 37.0633593 57.0282378 23.0633593 47.0282378 29.0633593 39.0282378 4.06335928 18.0282378 20.0633593 2.02823777 41.0633593 35.0282378 33.0633593 47.0282378 43.0633593 57.0282378 39.0633593 64.0282378 45.1623013 70.2029915 43.0633593 74.0282378 47.0633593 74.0282378"></polygon>
                    <polyline id="Path-66" fill="#988846" transform="translate(43.039194, 71.096223) rotate(-6.000000) translate(-43.039194, -71.096223) " points="48.2870043 68.5305243 46.1880622 72.3557706 50.1880622 72.3557706 48.1880622 80.3557706 40.1880622 75.3557706 44.1880622 68.3557706 35.8903253 62.2040274 43.2389115 65.5761709 41.9619852 61.8366763"></polyline>
                </g>
                <path d="M64.36,7 L102.64,7 C111.123094,7 118,13.8769062 118,22.36 L118,55.7246417 L118,81.64 C118,90.1230938 111.123094,97 102.64,97 L64.36,97 L64.36,97 C55.8769062,97 49,90.1230938 49,81.64 L49,22.36 L49,22.36 C49,13.8769062 55.8769062,7 64.36,7 L64.36,7 Z M67.1125,36.723301 C69.9705736,36.723301 72.2875,34.3727959 72.2875,31.473301 C72.2875,28.573806 69.9705736,26.223301 67.1125,26.223301 C64.2544264,26.223301 61.9375,28.573806 61.9375,31.473301 C61.9375,34.3727959 64.2544264,36.723301 67.1125,36.723301 Z M99.8875,36.723301 C102.745574,36.723301 105.0625,34.3727959 105.0625,31.473301 C105.0625,28.573806 102.745574,26.223301 99.8875,26.223301 C97.0294264,26.223301 94.7125,28.573806 94.7125,31.473301 C94.7125,34.3727959 97.0294264,36.723301 99.8875,36.723301 Z" id="Combined-Shape" fill="#F6D64F"></path>
            </g>
            <path d="M317.641029,303.02836 C320.9739,303.02836 323.675726,291.387763 323.675726,277.02836 C323.675726,262.668956 320.384073,253.28923 317.641029,251.02836 C314.897985,253.28923 311.606331,262.668956 311.606331,277.02836 C311.606331,291.387763 314.308158,303.02836 317.641029,303.02836 Z" id="Oval-36" fill="#F6D64F" transform="translate(317.641029, 277.028360) rotate(-18.000000) translate(-317.641029, -277.028360) "></path>
            <path d="M321.843444,260.102308 C320.658326,255.336518 319.074741,252.210053 317.641029,251.02836 C316.172293,252.23892 314.546273,255.49043 313.352482,260.454506" id="Oval-36" fill="#000000" transform="translate(317.597963, 277.028360) rotate(-18.000000) translate(-317.597963, -277.028360) "></path>
            <path d="M368.77378,303.02836 C372.106652,303.02836 374.808478,291.387763 374.808478,277.02836 C374.808478,262.668956 371.516824,253.28923 368.77378,251.02836 C366.030736,253.28923 362.739083,262.668956 362.739083,277.02836 C362.739083,291.387763 365.440909,303.02836 368.77378,303.02836 Z" id="Oval-36" fill="#F6D64F" transform="translate(368.773780, 277.028360) scale(-1, 1) rotate(-18.000000) translate(-368.773780, -277.028360) "></path>
            <path d="M373.065155,260.055582 C371.880036,255.289792 370.296451,252.163327 368.862739,250.981634 C367.394003,252.192195 365.767983,255.443704 364.574192,260.40778" id="Oval-36" fill="#000000" transform="translate(368.819673, 276.981634) scale(-1, 1) rotate(-18.000000) translate(-368.819673, -276.981634) "></path>
            <ellipse id="Oval-37" fill="#F43024" cx="323" cy="330.5" rx="5" ry="3.5"></ellipse>
            <ellipse id="Oval-37" fill="#F43024" cx="369" cy="330.5" rx="5" ry="3.5"></ellipse>
        </g>
    </g>
</svg>