<?xml version="1.0" encoding="UTF-8" standalone="no"?>
<svg width="152px" height="129px" viewBox="0 0 152 129" version="1.1" xmlns="http://www.w3.org/2000/svg" xmlns:xlink="http://www.w3.org/1999/xlink">
    <!-- Generator: Sketch 45.1 (43504) - http://www.bohemiancoding.com/sketch -->
    <title>Artboard 4</title>
    <desc>Created with Sketch.</desc>
    <defs>
        <path d="M28.36,0 L66.64,0 C75.1230938,-1.55831904e-15 82,6.87690624 82,15.36 L82,48.7246417 L82,74.64 C82,83.1230938 75.1230938,90 66.64,90 L28.36,90 L28.36,90 C19.8769062,90 13,83.1230938 13,74.64 L13,15.36 L13,15.36 C13,6.87690624 19.8769062,1.55831904e-15 28.36,0 L28.36,0 Z M31.1125,29.723301 C33.9705736,29.723301 36.2875,27.3727959 36.2875,24.473301 C36.2875,21.573806 33.9705736,19.223301 31.1125,19.223301 C28.2544264,19.223301 25.9375,21.573806 25.9375,24.473301 C25.9375,27.3727959 28.2544264,29.723301 31.1125,29.723301 Z M63.8875,29.723301 C66.7455736,29.723301 69.0625,27.3727959 69.0625,24.473301 C69.0625,21.573806 66.7455736,19.223301 63.8875,19.223301 C61.0294264,19.223301 58.7125,21.573806 58.7125,24.473301 C58.7125,27.3727959 61.0294264,29.723301 63.8875,29.723301 Z" id="path-1"></path>
    </defs>
    <g id="Page-1" stroke="none" stroke-width="1" fill="none" fill-rule="evenodd">
        <g id="Artboard-4" transform="translate(-98.000000, -250.000000)">
            <g id="Path-68" transform="translate(125.000000, 290.000000)">
                <polygon id="Path-70" fill="#032336" points="13 38 0 82 97 82 82 38"></polygon>
                <mask id="mask-2" fill="white">
                    <use xlink:href="#path-1"></use>
                </mask>
                <use id="Mask" fill="#F3CCAB" xlink:href="#path-1"></use>
                <polygon fill="#506978" mask="url(#mask-2)" points="11 45 48 50 82 45 82.8989778 56.6867108 86 97 7 97"></polygon>
                <rect id="Rectangle-59" fill="#032336" mask="url(#mask-2)" x="10" y="85" width="75" height="13"></rect>
                <rect id="Rectangle-59" fill="#F8E71C" mask="url(#mask-2)" x="11" y="79.9823151" width="75" height="5.01768487"></rect>
            </g>
            <ellipse id="Oval-38" stroke="#032336" stroke-width="2" fill="#F8E71C" cx="174" cy="354" rx="13" ry="8"></ellipse>
            <polygon id="Path-69" fill="#032336" points="138 340 207 340 207 274 200 290 145 290 138 274"></polygon>
            <ellipse id="Oval-2" fill="#FFFFFF" cx="189.175" cy="311.25" rx="5.175" ry="5.25"></ellipse>
            <ellipse id="Oval-2" fill="#FFFFFF" cx="156.175" cy="311.25" rx="5.175" ry="5.25"></ellipse>
        </g>
    </g>
</svg>