<?xml version="1.0" encoding="UTF-8" standalone="no"?>
<svg width="152px" height="129px" viewBox="0 0 152 129" version="1.1" xmlns="http://www.w3.org/2000/svg" xmlns:xlink="http://www.w3.org/1999/xlink">
    <!-- Generator: Sketch 45.1 (43504) - http://www.bohemiancoding.com/sketch -->
    <title>Artboard 4</title>
    <desc>Created with Sketch.</desc>
    <defs>
        <path d="M15.36,0 L53.64,0 C62.1230938,-1.55831904e-15 69,6.87690624 69,15.36 L69,48.7246417 L69,74.64 C69,83.1230938 62.1230938,90 53.64,90 L15.36,90 L15.36,90 C6.87690624,90 -1.69491377e-13,83.1230938 -1.70530257e-13,74.64 L-1.70530257e-13,15.36 L-1.70530257e-13,15.36 C-1.71569136e-13,6.87690624 6.87690624,1.55831904e-15 15.36,0 L15.36,0 Z M18.1125,29.723301 C20.9705736,29.723301 23.2875,27.3727959 23.2875,24.473301 C23.2875,21.573806 20.9705736,19.223301 18.1125,19.223301 C15.2544264,19.223301 12.9375,21.573806 12.9375,24.473301 C12.9375,27.3727959 15.2544264,29.723301 18.1125,29.723301 Z M50.8875,29.723301 C53.7455736,29.723301 56.0625,27.3727959 56.0625,24.473301 C56.0625,21.573806 53.7455736,19.223301 50.8875,19.223301 C48.0294264,19.223301 45.7125,21.573806 45.7125,24.473301 C45.7125,27.3727959 48.0294264,29.723301 50.8875,29.723301 Z" id="path-1"></path>
    </defs>
    <g id="Page-1" stroke="none" stroke-width="1" fill="none" fill-rule="evenodd">
        <g id="Artboard-4" transform="translate(-417.000000, -250.000000)">
            <path d="M525,311 L525,337 C530.051908,337.446529 534.718575,336.446529 539,334 C546,330 547.717593,326.633972 555,319 C557.06084,316.839672 563,314 562,313 C561,312 554,315 549,314 C543.399657,312.879931 542,310 536,309 C530.813985,308.135664 527.147319,308.802331 525,311 Z" id="Path-67" fill="#B8E986"></path>
            <path d="M516,324 L520,333.931006 C523.678701,333.637259 527.528575,332.969875 531.54962,331.928853 C539,330 545,325 549,320 C549,318 545.200651,320.418833 540,319 C535.597264,317.798853 533.949837,317.246398 529,316.579014 C524.721679,316.00217 520.388345,318.475832 516,324 Z" id="Path-67" fill="#89BC55"></path>
            <path d="M420,310.365974 L420,336.365974 C425.051908,336.812503 429.718575,335.812503 434,333.365974 C441,329.365974 442.717593,325.999946 450,318.365974 C452.06084,316.205646 458,313.365974 457,312.365974 C456,311.365974 449,314.365974 444,313.365974 C438.399657,312.245906 437,309.365974 431,308.365974 C425.813985,307.501638 422.147319,308.168305 420,310.365974 Z" id="Path-67" fill="#B8E986" transform="translate(438.556257, 322.234677) scale(-1, 1) translate(-438.556257, -322.234677) "></path>
            <path d="M433,323.502796 L437,333.433802 C440.678701,333.140055 444.528575,332.472671 448.54962,331.431649 C456,329.502796 462,324.502796 466,319.502796 C466,317.502796 462.200651,319.921629 457,318.502796 C452.597264,317.301649 450.949837,316.749194 446,316.08181 C441.721679,315.504966 437.388345,317.978628 433,323.502796 Z" id="Path-67" fill="#89BC55" transform="translate(449.500000, 324.716901) scale(-1, 1) translate(-449.500000, -324.716901) "></path>
            <g id="Bonfire" transform="translate(456.891808, 288.000000)">
                <g id="Path" transform="translate(-0.000000, 0.000000)">
                    <mask id="mask-2" fill="white">
                        <use xlink:href="#path-1"></use>
                    </mask>
                    <use id="Mask" fill="#B8E986" xlink:href="#path-1"></use>
                    <rect id="Rectangle-56" fill="#6D6147" mask="url(#mask-2)" x="15" y="61" width="40" height="22"></rect>
                    <polygon fill="#BBA87D" mask="url(#mask-2)" transform="translate(56.332214, 62.473228) scale(-1, 1) rotate(-28.000000) translate(-56.332214, -62.473228) " points="37.3664057 71.106656 51.3174965 44.8684703 75.5395691 80.0779865 57.6566351 79.6300222 37.1248583 77.7736432"></polygon>
                    <polygon fill="#DFC891" mask="url(#mask-2)" transform="translate(27.338356, 63.859429) rotate(-15.000000) translate(-27.338356, -63.859429) " points="-5.37391112 24.9517378 71.544426 102.76712 -16.8677146 79.0771586 -14.5702686 70.5029731"></polygon>
                </g>
            </g>
            <g id="Group-6" transform="translate(451.530554, 326.575288) rotate(-6.000000) translate(-451.530554, -326.575288) translate(448.530554, 283.075288)">
                <rect id="Rectangle-57" fill="#42B636" x="-3.41060513e-13" y="2.1550093" width="6" height="83.8633564" rx="3"></rect>
                <path d="M6,63 L6,83.0183658 L6,83.0183658 C6,84.67522 4.65685425,86.0183658 3,86.0183658 L3,86.0183658 L3,86.0183658 C1.34314575,86.0183658 -5.68434189e-14,84.67522 -5.68434189e-14,83.0183658 L-5.68434189e-14,63" id="Rectangle-57" fill="#010101"></path>
                <rect id="Rectangle-58" fill="#D8D8D8" x="-2.27373675e-13" y="65" width="6" height="1.65111968"></rect>
                <rect id="Rectangle-58" fill="#D8D8D8" x="3.41060513e-13" y="69" width="6" height="1.65111968"></rect>
            </g>
        </g>
    </g>
</svg>