<?xml version="1.0" encoding="UTF-8" standalone="no"?>
<svg width="293px" height="360px" viewBox="0 0 293 360" version="1.1" xmlns="http://www.w3.org/2000/svg" xmlns:xlink="http://www.w3.org/1999/xlink">
    <!-- Generator: Sketch 44.1 (41455) - http://www.bohemiancoding.com/sketch -->
    <title>Desktop HD</title>
    <desc>Created with Sketch.</desc>
    <defs></defs>
    <g id="Web" stroke="none" stroke-width="1" fill="none" fill-rule="evenodd">
        <g id="Desktop-HD" transform="translate(-122.000000, -377.000000)" fill="#FFFFFF">
            <g id="Group-3" transform="translate(123.000000, 335.000000)">
                <path d="M139.604101,347.168425 C140.803697,346.923382 142.023175,346.8 143.245516,346.8 L143.245516,346.8 M172.666624,369.992555 L170.068055,385.592555 C168.488263,395.076522 160.604099,402 151.383948,402 L146.168907,402 C137.09902,402 129.298751,395.295069 127.557228,386.00183 L124.633837,369.992555" id="Rectangle"></path>
                <path d="M194.532787,278.4 L194.532787,289.2 L194.532787,322.8 L194.532787,322.8 C194.532787,341.356768 179.479279,356.4 160.909836,356.4 L135.692623,356.4 L135.692623,356.4 C117.12318,356.4 102.069672,341.356768 102.069672,322.8 L102.069672,288 L102.069672,278.4 L102.069672,278.4" id="Rectangle-14"></path>
                <path d="M87.1949016,64.8 L205.762955,64.8 L205.762955,64.8 C253.911114,64.8 292.942908,103.831794 292.942908,151.979953 C292.942908,155.933664 292.67395,159.882797 292.137897,163.8 L283.132575,229.606355 L283.132575,229.606355 C280.529966,248.624908 264.28296,262.8 245.087156,262.8 L49.876768,262.8 L49.876768,262.8 C30.8707801,262.8 14.724122,248.896511 11.9023456,230.101162 L1.94844422,163.8 L1.94844422,163.8 C-5.11980063,116.719682 27.3163938,72.8235981 74.3967121,65.7553532 C78.6331103,65.1193359 82.9110263,64.8 87.1949016,64.8 Z" id="D02118"></path>
                <ellipse id="Oval-15" cx="76.852459" cy="177.6" rx="10.807377" ry="10.8"></ellipse>
                <ellipse id="Oval-15" cx="214.946721" cy="177.6" rx="10.807377" ry="10.8"></ellipse>
                <ellipse id="Oval-17" cx="223.952869" cy="301.2" rx="12.6086066" ry="15.6"></ellipse>
                <ellipse id="Oval-17" cx="73.8504098" cy="301.2" rx="12.6086066" ry="15.6"></ellipse>
            </g>
        </g>
    </g>
</svg>