<?xml version="1.0" encoding="UTF-8" standalone="no"?>
<svg width="50px" height="auto" viewBox="0 0 26 34" version="1.1" xmlns="http://www.w3.org/2000/svg" xmlns:xlink="http://www.w3.org/1999/xlink">
    <!-- Generator: Sketch 45.1 (43504) - http://www.bohemiancoding.com/sketch -->
    <title>Monocle</title>
    <desc>Created with Sketch.</desc>
    <defs></defs>
    <g id="Symbols" stroke="none" stroke-width="1" fill="none" fill-rule="evenodd">
        <g id="Navigation" transform="translate(-320.000000, -11.000000)">
            <g id="Monocle" transform="translate(320.000000, 11.000000)">
                <path d="M7,6.63452214 C7,9.70049105 8.7523174,10.7909282 11.4464863,9.46183056 C11.5553896,9.403906 11.7145595,9.32109023 11.8848742,9.23617683 C11.9098976,9.22371955 11.9098976,9.22371955 11.9352948,9.21115694 C12.0659094,9.1466602 12.1820098,9.09177595 12.2871822,9.04596591 C12.3672114,9.01110755 12.4420506,8.98088542 12.5203914,8.95327382 C12.7562522,8.87014349 12.9351089,8.82451738 13.2447959,8.82451738 C13.554483,8.82451738 13.7333397,8.87014349 13.9692005,8.95327382 C14.0475413,8.98088542 14.1223805,9.01110755 14.2024097,9.04596591 C14.3075821,9.09177595 14.4236825,9.1466602 14.5542971,9.21115694 C14.5796943,9.22371955 14.5796943,9.22371955 14.6047177,9.23617683 C14.7750324,9.32109023 14.9342023,9.403906 14.9866148,9.43292395 C17.7380345,10.7861975 19.4895919,9.69715274 19.4895919,6.62850662 L19.4895919,1.38932232 L21.4895919,1.38932232 L21.4895919,6.62850662 C21.4895919,11.1823221 18.1806334,13.2327099 14.1039144,11.2275938 C14.1039144,11.2275938 13.3460947,10.8245174 13.2447959,10.8245174 C13.1434972,10.8245174 12.3856775,11.2275938 12.3856775,11.2275938 C8.30668044,13.2414036 5,11.180804 5,6.63452214 L5,2.33242416 L7,2.36045061 L7,6.63452214 Z" id="Rectangle-3" fill="#212121" fill-rule="nonzero" transform="translate(13.244796, 6.694661) rotate(180.000000) translate(-13.244796, -6.694661) "></path>
                <path d="M16.6579703,25.5288754 C16.6579703,25.5288754 19.6022155,29.6628537 19.0399147,30.9403232 C18.4776139,32.2177927 14.8848621,32.3235149 14.2760258,30.9403232 C13.6671896,29.5571315 16.6579703,25.5288754 16.6579703,25.5288754 Z" id="Triangle" stroke="#212121" stroke-width="2" transform="translate(16.652778, 28.733670) rotate(270.000000) translate(-16.652778, -28.733670) "></path>
                <path d="M9.85241474,25.5288754 C9.85241474,25.5288754 12.79666,29.6628537 12.2343592,30.9403232 C11.6720584,32.2177927 8.07930657,32.3235149 7.47047029,30.9403232 C6.86163402,29.5571315 9.85241474,25.5288754 9.85241474,25.5288754 Z" id="Triangle" stroke="#212121" stroke-width="2" transform="translate(9.847222, 28.733670) rotate(90.000000) translate(-9.847222, -28.733670) "></path>
                <path d="M9.19246329,16.2406242 C10.2292307,16.9193314 10.5333211,18.3331465 9.87113144,19.3957959 C9.2089781,20.4584453 7.82968255,20.7701751 6.79291514,20.0914307 C5.75618403,19.4126864 5.45209366,17.9989084 6.11424699,16.936259 C6.77643662,15.8735725 8.15573218,15.5618798 9.19246329,16.2406242 Z" id="Stroke-1" stroke="#212121" stroke-width="2" stroke-linecap="round" stroke-linejoin="round"></path>
            </g>
            <path d="M322,23 L344.5,23" id="Path" stroke="#212121" stroke-width="2" stroke-linecap="round" stroke-linejoin="round"></path>
        </g>
    </g>
</svg>
